<svg width="122" height="120" viewBox="0 0 122 120" fill="none" xmlns="http://www.w3.org/2000/svg">
<g clip-path="url(#clip0)">
<path d="M60.9124 0C27.2576 0 0 27.2576 0 60.9124C0 89.5386 19.6423 113.297 46.1431 119.995C45.8372 119.233 45.6869 118.165 45.6869 117.102V106.744H38.0715C33.9606 106.744 30.1503 104.92 28.4759 101.566C26.4956 97.9108 26.1897 92.2758 21.1664 88.7714C19.6423 87.5531 20.8605 86.3349 22.535 86.4852C25.7335 87.3976 28.3204 89.5334 30.7569 92.7268C33.1934 95.9253 34.2613 96.6874 38.8284 96.6874C40.959 96.6874 44.3079 96.5371 47.3561 96.0757C49.0306 91.8092 51.9233 88.0041 55.4277 86.1794C35.0233 83.7429 25.2773 73.691 25.2773 59.9844C25.2773 54.0435 27.8642 48.4085 32.1306 43.5355C30.7621 38.8129 28.9321 29.0669 32.7424 25.2618C41.8818 25.2618 47.3613 31.2027 48.7299 32.7216C53.297 31.1975 58.3256 30.2851 63.4992 30.2851C68.8284 30.2851 73.7014 31.1975 78.2685 32.7216C79.6371 31.1975 85.1218 25.2618 94.2561 25.2618C97.9108 28.9165 96.2364 38.8129 94.7123 43.5355C98.9787 48.2582 101.415 54.0435 101.415 59.9844C101.415 73.691 91.8196 83.7429 71.5708 85.8735C77.2058 88.7662 81.1664 96.9881 81.1664 103.079V116.952C81.1664 117.408 81.0161 117.864 81.0161 118.32C104.769 110.098 121.825 87.5635 121.825 60.9124C121.825 27.2576 94.5671 0 60.9124 0Z" fill="black"/>
</g>
<defs>
<clipPath id="clip0">
<rect width="121.825" height="120" fill="white"/>
</clipPath>
</defs>
</svg>
